<?xml version="1.0" standalone="no"?>
<!DOCTYPE svg PUBLIC "-//W3C//DTD SVG 20010904//EN"
 "http://www.w3.org/TR/2001/REC-SVG-20010904/DTD/svg10.dtd">
<svg version="1.0" xmlns="http://www.w3.org/2000/svg"
 width="1024.000000pt" height="1024.000000pt" viewBox="0 0 1024.000000 1024.000000"
 preserveAspectRatio="xMidYMid meet">

<g transform="translate(0.000000,1024.000000) scale(0.100000,-0.100000)"
fill="#000000" stroke="none">
<path d="M0 5120 l0 -5120 5120 0 5120 0 0 5120 0 5120 -5120 0 -5120 0 0
-5120z m5325 3400 c177 -45 391 -196 490 -346 83 -125 130 -298 122 -444 -10
-165 -55 -286 -162 -435 -80 -112 -116 -147 -230 -224 -147 -98 -208 -116
-405 -116 -135 0 -165 3 -230 24 -41 13 -92 32 -113 43 -37 18 -38 18 -33 1
19 -65 46 -247 46 -312 0 -157 -82 -385 -185 -513 -62 -77 -150 -142 -272
-199 -56 -27 -104 -53 -107 -58 -9 -14 22 -35 164 -111 216 -116 247 -143 360
-310 76 -113 85 -133 138 -285 39 -114 45 -143 49 -240 5 -116 -1 -154 -53
-320 -100 -317 -300 -527 -601 -632 -227 -79 -452 -59 -728 66 -237 108 -415
322 -499 601 -75 252 -50 485 81 743 79 156 231 298 409 384 61 29 117 59 123
67 15 18 22 13 -152 105 -54 28 -117 66 -139 84 -101 81 -211 251 -258 402
-31 100 -38 267 -15 370 63 285 230 504 488 640 99 52 162 72 279 86 130 16
319 -11 411 -58 16 -8 31 -13 33 -10 2 2 -1 28 -6 58 -16 82 -13 245 6 330 59
263 219 461 460 570 99 45 165 57 315 58 105 1 153 -4 214 -19z m-1346 -276
c17 -4 51 -24 76 -46 167 -147 10 -427 -192 -343 -50 21 -72 42 -94 90 -23 49
-24 105 -4 173 18 58 60 99 122 119 47 14 53 15 92 7z m2469 -70 c56 -28 105
-90 122 -156 24 -87 -21 -209 -97 -262 -72 -50 -190 -47 -257 5 -37 29 -74 97
-85 155 -14 69 11 174 50 219 59 66 177 84 267 39z m55 -659 c81 -28 127 -58
196 -128 132 -135 181 -248 181 -414 0 -125 -36 -234 -117 -356 -51 -77 -104
-117 -216 -161 -104 -41 -174 -51 -274 -37 -111 16 -173 40 -254 100 -80 59
-147 155 -191 273 -58 155 -39 340 50 477 105 163 206 237 367 271 60 13 180
1 258 -25z m-1151 -701 c64 -21 121 -74 152 -140 91 -191 -9 -356 -225 -372
-209 -15 -357 204 -265 393 57 115 201 166 338 119z m1600 -314 c21 -6 51 -27
72 -50 33 -37 36 -45 36 -104 0 -54 -4 -69 -31 -105 -39 -55 -87 -75 -157 -68
-98 10 -142 61 -142 165 0 59 2 65 38 103 34 36 94 68 132 69 8 0 31 -5 52
-10z m-627 -324 c283 -73 514 -259 676 -543 98 -172 139 -318 139 -500 0 -304
-107 -565 -322 -784 -99 -101 -197 -165 -349 -226 -152 -61 -257 -83 -399 -83
-146 0 -260 25 -393 84 -202 91 -360 212 -475 365 -72 95 -114 194 -159 371
-34 132 -34 138 -29 290 6 195 29 303 89 433 72 153 179 286 332 413 101 82
286 170 425 200 105 22 340 12 465 -20z m-1349 -11 c93 -55 121 -168 65 -258
-79 -123 -275 -125 -338 -4 -23 45 -21 132 4 182 57 110 164 141 269 80z m240
-2016 c261 -48 536 -262 660 -514 69 -142 87 -224 87 -390 0 -122 -4 -152 -27
-230 -48 -160 -116 -281 -226 -399 -117 -126 -350 -242 -532 -264 -140 -18
-289 7 -442 74 -343 150 -546 461 -549 839 -2 319 125 557 402 753 136 95 281
139 472 141 52 1 122 -4 155 -10z m1767 -10 c125 -34 173 -186 96 -303 -113
-170 -373 -64 -345 141 6 49 46 116 78 135 66 37 109 44 171 27z m-3150 -252
c138 -82 242 -270 222 -403 -16 -109 -111 -230 -223 -282 -46 -22 -71 -27
-132 -27 -65 1 -84 6 -145 35 -117 58 -185 144 -220 275 -45 173 86 378 272
425 66 16 178 5 226 -23z m2592 -1 c67 -31 140 -113 160 -179 29 -98 11 -168
-64 -249 -112 -122 -272 -125 -390 -7 -48 48 -71 112 -71 193 1 73 16 120 56
170 73 93 201 123 309 72z m442 -457 c91 -56 82 -188 -15 -231 -39 -18 -50
-19 -86 -8 -67 20 -106 68 -106 130 0 103 116 165 207 109z m-489 -295 c180
-75 166 -364 -20 -415 -123 -33 -232 45 -245 174 -17 165 129 298 265 241z
m-2401 -134 c81 -36 105 -124 60 -211 -33 -63 -85 -91 -160 -86 -141 8 -206
155 -114 256 58 63 134 78 214 41z"/>
<path d="M5034 8379 c-72 -12 -185 -54 -257 -96 -217 -126 -335 -409 -283
-673 23 -114 84 -236 159 -316 63 -68 176 -134 297 -173 348 -114 737 131 815
514 46 222 -47 469 -227 604 -158 117 -339 168 -504 140z m209 -164 c91 -24
146 -55 219 -123 115 -109 174 -272 148 -413 -27 -156 -133 -295 -279 -367
-75 -37 -76 -37 -202 -37 l-126 0 -87 45 c-107 54 -165 110 -210 200 -67 134
-71 244 -17 411 32 99 51 127 131 191 121 97 277 131 423 93z"/>
<path d="M4752 7868 c20 -20 38 -28 61 -27 31 0 31 1 -11 14 -24 7 -51 19 -61
27 -9 7 -4 1 11 -14z"/>
<path d="M3915 7423 c-80 -11 -194 -46 -258 -80 -90 -47 -219 -169 -270 -255
-88 -148 -128 -370 -92 -513 35 -140 128 -303 216 -379 88 -75 256 -144 401
-165 149 -21 297 27 468 152 165 121 260 320 260 545 0 173 -26 268 -106 389
-149 225 -380 339 -619 306z m190 -169 c108 -28 193 -91 271 -200 69 -97 96
-172 101 -284 9 -170 -47 -310 -168 -425 -144 -136 -300 -175 -491 -124 -144
39 -253 135 -324 284 -80 169 -62 365 50 535 62 94 121 143 219 180 137 53
235 62 342 34z"/>
<path d="M3570 6936 c0 -19 9 -32 33 -46 40 -25 41 -25 61 5 16 24 16 24 -27
36 -23 6 -48 16 -54 21 -10 8 -13 4 -13 -16z"/>
<path d="M3845 5805 c-139 -39 -337 -171 -454 -301 -101 -113 -161 -260 -183
-445 -10 -83 -9 -113 6 -205 10 -59 27 -132 38 -163 58 -156 186 -318 325
-411 84 -56 240 -111 368 -130 207 -30 419 51 591 225 75 76 99 109 143 193
70 138 95 245 93 412 -1 153 -22 245 -88 377 -85 172 -271 330 -488 416 -90
36 -112 41 -201 43 -65 2 -118 -2 -150 -11z m287 -204 c95 -25 158 -56 239
-121 83 -66 131 -125 179 -224 125 -253 72 -568 -129 -775 -75 -77 -224 -145
-353 -162 -180 -23 -352 39 -494 178 -93 90 -122 137 -163 260 -65 194 -45
385 62 581 33 61 142 172 169 172 6 0 32 13 58 29 130 80 278 101 432 62z"/>
<path d="M6224 7386 c-94 -30 -182 -115 -237 -226 -31 -62 -32 -70 -32 -185
l0 -120 44 -83 c50 -94 98 -138 189 -172 151 -57 315 -25 419 81 24 23 62 79
85 123 37 71 43 89 43 146 0 143 -94 321 -205 388 -30 18 -71 37 -90 42 -62
18 -172 21 -216 6z m203 -148 c92 -43 163 -162 163 -274 0 -70 -20 -118 -73
-172 -61 -64 -89 -75 -182 -76 -89 -1 -119 10 -186 71 -63 57 -79 98 -79 198
0 100 16 141 78 197 95 86 179 102 279 56z"/>
<path d="M5950 6039 c-65 -9 -212 -60 -291 -99 -159 -81 -342 -274 -403 -425
-37 -92 -74 -256 -82 -358 -7 -88 15 -226 57 -361 30 -97 112 -220 218 -327
226 -227 519 -314 816 -244 301 71 549 305 657 618 32 91 32 95 32 282 1 188
0 191 -31 285 -54 157 -134 277 -273 406 -187 173 -457 259 -700 223z m188
-169 c267 -44 462 -187 577 -423 82 -169 100 -297 67 -458 -49 -236 -195 -439
-387 -536 -131 -67 -171 -77 -310 -77 -135 -1 -195 11 -295 56 -183 83 -339
255 -405 445 -116 334 41 754 338 905 174 87 280 110 415 88z"/>
<path d="M4965 3984 c-11 -2 -45 -9 -75 -15 -30 -6 -93 -29 -140 -51 -158 -76
-323 -273 -371 -443 -30 -106 -33 -318 -5 -409 20 -68 75 -182 116 -241 140
-200 415 -332 649 -310 331 31 612 312 650 650 18 157 -14 323 -86 443 -99
167 -298 318 -473 360 -50 12 -234 23 -265 16z m273 -192 c173 -56 339 -239
381 -422 42 -182 -31 -405 -176 -540 -100 -94 -215 -140 -353 -140 -314 0
-571 259 -570 576 1 167 75 336 193 440 39 34 160 88 242 108 47 11 222 -2
283 -22z"/>
<path d="M5069 3763 c10 -21 21 -45 24 -53 3 -8 6 -1 6 16 1 17 -7 39 -19 52
-30 31 -32 27 -11 -15z"/>
<path d="M3776 3731 c55 -33 77 -75 81 -155 7 -116 -36 -173 -138 -182 -44 -4
-63 -1 -99 18 -51 26 -73 63 -88 147 -8 48 -6 58 15 99 28 52 21 69 -12 28
-43 -54 -58 -155 -32 -219 20 -46 86 -101 140 -116 62 -18 125 -7 174 29 55
41 78 90 78 166 0 50 -6 70 -30 110 -29 46 -85 94 -109 94 -6 0 3 -9 20 -19z"/>
<path d="M6248 3729 l-33 -31 33 26 c44 34 100 35 139 2 23 -20 27 -31 26 -67
-1 -26 -8 -48 -17 -55 -9 -6 -13 -13 -10 -16 2 -3 -2 -8 -10 -11 -9 -4 -18 -2
-21 3 -4 6 -15 10 -26 10 -11 0 -18 -4 -15 -9 3 -4 0 -16 -7 -25 -12 -17 -15
-16 -45 9 -18 15 -32 33 -32 41 0 7 -9 18 -20 24 -25 13 -26 1 -4 -46 34 -72
103 -93 175 -52 67 37 82 103 43 180 -19 36 -43 48 -98 48 -37 0 -52 -6 -78
-31z"/>
<path d="M6256 3592 c-3 -5 1 -9 9 -9 8 0 12 4 9 9 -3 4 -7 8 -9 8 -2 0 -6 -4
-9 -8z"/>
</g>
</svg>
